<?xml version="1.0" standalone="no"?>
<!DOCTYPE svg PUBLIC "-//W3C//DTD SVG 20010904//EN"
 "http://www.w3.org/TR/2001/REC-SVG-20010904/DTD/svg10.dtd">
<svg version="1.0" xmlns="http://www.w3.org/2000/svg"
 width="1042.000000pt" height="1042.000000pt" viewBox="0 0 1042.000000 1042.000000"
 preserveAspectRatio="xMidYMid meet">
<metadata>
Created by potrace 1.14, written by Peter Selinger 2001-2017
</metadata>
<g transform="translate(0.000000,1042.000000) scale(0.100000,-0.100000)"
fill="#000000" stroke="none">
<path d="M4865 10279 c-1476 -96 -2850 -845 -3741 -2039 -381 -510 -676 -1122
-838 -1741 -132 -500 -185 -1032 -157 -1574 76 -1495 821 -2889 2027 -3790
741 -555 1598 -891 2526 -991 189 -20 775 -23 978 -5 1441 131 2750 864 3622
2030 782 1045 1132 2371 967 3671 -96 763 -360 1488 -776 2129 -422 650 -1004
1211 -1669 1607 -173 103 -561 293 -749 367 -411 162 -893 277 -1345 322 -189
19 -654 27 -845 14z m2335 -779 c489 -245 868 -517 1246 -894 356 -357 611
-699 841 -1130 70 -131 74 -157 30 -190 -26 -19 -30 -19 -55 -6 -16 9 -44 48
-70 95 -266 487 -510 815 -868 1165 -375 366 -720 611 -1209 855 -148 74 -182
95 -189 117 -7 20 -5 33 8 53 16 24 23 27 60 23 24 -3 108 -38 206 -88z m-90
-265 c453 -225 806 -479 1160 -834 311 -312 548 -633 764 -1034 54 -99 58
-143 17 -163 -39 -20 -63 -2 -106 75 -89 161 -212 363 -291 476 -407 585 -943
1046 -1589 1366 -170 84 -205 107 -205 135 0 20 41 64 60 64 10 0 96 -38 190
-85z m-77 -271 c588 -294 1064 -696 1449 -1224 129 -177 338 -531 338 -572 0
-25 -36 -50 -66 -46 -22 2 -34 13 -52 48 -402 761 -970 1320 -1724 1697 -114
57 -169 90 -173 104 -10 29 20 69 51 69 14 0 93 -34 177 -76z m-64 -278 c613
-308 1116 -778 1466 -1371 110 -187 131 -245 94 -268 -39 -24 -62 -1 -133 130
-340 626 -886 1142 -1529 1448 -63 30 -118 62 -121 71 -16 43 27 80 72 63 13
-5 81 -38 151 -73z m-89 -266 c307 -153 531 -313 779 -555 253 -246 455 -515
590 -782 37 -74 39 -82 25 -102 -18 -26 -46 -27 -66 -3 -8 9 -33 51 -55 92
-284 535 -746 982 -1305 1266 -81 41 -152 83 -157 93 -12 21 11 61 35 61 8 0
78 -31 154 -70z m-147 -235 c502 -230 950 -649 1230 -1151 60 -107 65 -122 45
-142 -21 -21 -48 -13 -66 19 -216 400 -486 714 -817 951 -120 86 -279 182
-392 235 -97 46 -118 65 -102 95 13 24 37 23 102 -7z m-34 -293 c237 -118 416
-247 607 -436 147 -147 214 -228 312 -379 103 -159 139 -233 126 -254 -23 -37
-45 -20 -97 72 -224 403 -547 715 -956 924 -103 53 -121 65 -121 86 0 20 8 30
29 34 2 1 47 -21 100 -47z m-58 -280 c344 -178 626 -451 809 -785 37 -69 41
-80 28 -93 -22 -22 -40 -9 -73 54 -171 327 -483 626 -822 788 -51 24 -73 40
-73 52 0 44 17 42 131 -16z m-1271 -202 c406 -36 743 -154 1075 -378 231 -155
425 -349 584 -581 349 -512 469 -1151 329 -1756 -53 -229 -176 -511 -312 -713
-280 -419 -674 -720 -1156 -882 -833 -281 -1798 -10 -2368 665 -244 289 -415
641 -486 995 -125 628 12 1252 386 1756 94 125 267 307 383 401 442 358 1022
540 1565 493z m1195 -70 c236 -124 440 -312 578 -532 70 -112 85 -147 67 -158
-20 -12 -24 -8 -80 87 -143 242 -370 456 -612 574 -46 23 -68 39 -68 51 0 28
32 22 115 -22z m-3386 -3615 c144 -246 369 -457 614 -576 45 -23 67 -39 67
-51 0 -29 -38 -22 -120 23 -231 126 -430 308 -562 514 -72 111 -91 154 -77
171 16 20 22 13 78 -81z m-274 -53 c79 -152 232 -351 360 -471 133 -124 351
-271 486 -329 51 -22 66 -44 43 -63 -19 -16 -64 2 -196 76 -305 174 -570 441
-737 746 -38 70 -40 78 -26 93 23 22 37 12 70 -52z m-290 -28 c9 -9 29 -42 44
-73 16 -31 60 -103 98 -161 221 -334 503 -586 861 -768 66 -34 122 -68 125
-77 6 -14 -16 -45 -31 -45 -4 0 -60 27 -125 59 -387 196 -722 510 -947 888
-78 130 -88 156 -71 177 17 20 26 20 46 0z m-227 -129 c167 -293 277 -442 476
-641 214 -213 450 -383 700 -505 111 -54 131 -71 115 -100 -16 -30 -47 -23
-169 39 -492 249 -899 641 -1163 1120 -32 56 -57 106 -57 111 0 17 32 42 48
39 9 -2 31 -30 50 -63z m-286 -32 c8 -10 33 -52 55 -93 184 -346 462 -679 776
-929 170 -135 344 -245 555 -351 130 -65 152 -82 136 -108 -30 -47 -63 -37
-296 89 -392 214 -751 528 -1025 899 -123 166 -273 423 -273 468 0 40 45 56
72 25z m-266 -71 c6 -4 45 -70 88 -146 347 -625 868 -1117 1508 -1426 130 -63
149 -81 129 -119 -22 -40 -45 -35 -201 43 -485 241 -874 558 -1215 986 -154
194 -385 568 -385 624 0 33 48 57 76 38z m-192 -187 c179 -336 394 -624 670
-900 94 -94 214 -206 267 -249 233 -190 501 -362 766 -492 104 -51 154 -81
158 -95 10 -29 -20 -69 -51 -69 -29 0 -276 121 -423 207 -523 306 -989 751
-1316 1258 -68 105 -225 384 -225 400 0 6 7 21 16 33 12 17 24 22 47 20 29 -3
37 -12 91 -113z m-279 -43 c310 -568 656 -990 1110 -1353 262 -209 492 -354
789 -500 161 -79 186 -97 186 -131 0 -24 -35 -58 -61 -58 -24 0 -324 149 -459
227 -566 332 -1076 813 -1432 1354 -137 207 -268 443 -268 482 0 36 26 59 64
55 27 -3 36 -12 71 -76z m-298 -15 c7 -5 38 -57 70 -116 230 -430 499 -788
849 -1131 373 -365 745 -628 1212 -856 186 -91 207 -109 184 -159 -23 -51 -54
-50 -171 4 -501 233 -947 546 -1347 945 -189 189 -294 309 -435 496 -160 211
-303 435 -419 658 -46 88 -52 107 -44 130 16 45 63 59 101 29z"/>
<path d="M4440 6432 c-168 -82 -283 -417 -251 -732 38 -377 215 -605 406 -526
85 36 182 186 227 351 18 68 22 108 22 270 1 166 -2 201 -21 278 -59 229 -179
377 -308 377 -22 0 -56 -8 -75 -18z m196 -149 c49 -49 59 -168 22 -243 -20
-40 -27 -45 -57 -45 -48 0 -73 37 -79 115 -5 73 2 115 28 158 22 36 58 43 86
15z"/>
<path d="M5755 6429 c-290 -149 -344 -894 -86 -1181 54 -60 106 -88 164 -88
60 0 100 18 153 70 121 117 179 310 178 585 -1 149 -4 182 -26 265 -75 281
-234 426 -383 349z m223 -152 c45 -48 56 -161 22 -235 -43 -94 -120 -63 -138
54 -22 140 50 251 116 181z"/>
<path d="M3466 5031 c-37 -41 13 -139 91 -180 33 -16 38 -26 73 -132 186 -565
662 -990 1244 -1109 201 -41 457 -41 663 0 578 117 1071 562 1245 1122 27 89
37 108 55 113 38 9 91 63 109 110 16 42 16 46 0 70 -14 21 -24 26 -49 23 -25
-2 -36 -11 -49 -38 -23 -45 -44 -60 -85 -60 -32 0 -73 31 -73 55 0 18 -34 45
-58 45 -29 0 -52 -26 -52 -59 0 -35 49 -112 83 -130 34 -18 34 -30 -4 -138
-225 -637 -836 -1056 -1504 -1030 -234 9 -409 50 -603 143 -392 186 -690 523
-816 922 -30 97 -30 92 -13 92 25 0 86 69 98 111 13 43 7 63 -23 82 -21 14
-66 0 -73 -22 -14 -45 -45 -71 -84 -71 -41 0 -59 14 -82 65 -18 38 -66 46 -93
16z"/>
</g>
</svg>
